<svg width="751" height="501" viewBox="0 0 751 501" fill="none" xmlns="http://www.w3.org/2000/svg">
<rect width="751" height="501" fill="#A29E9E"/>
<rect x="162" y="145" width="100" height="100" fill="#506795"/>
<circle cx="276" cy="204" r="30" fill="#FFA1A1"/>
<path d="M409.021 201.458L482.726 155.988L485.252 242.554L409.021 201.458Z" fill="#BB0606"/>
<path d="M85 33L96.2257 67.5491H132.553L103.164 88.9017L114.389 123.451L85 102.098L55.6107 123.451L66.8364 88.9017L37.4472 67.5491H73.7743L85 33Z" fill="white"/>
<path d="M667 33L678.226 67.5491H714.553L685.164 88.9017L696.389 123.451L667 102.098L637.611 123.451L648.836 88.9017L619.447 67.5491H655.774L667 33Z" fill="black"/>
<path d="M313.5 334L452.497 409H174.503L313.5 334Z" fill="#AFC9FE"/>
<path d="M602 313L645.301 388H558.699L602 313Z" fill="#3563C0"/>
</svg>
