<svg width="45" height="45" viewBox="0 0 45 45" fill="none" xmlns="http://www.w3.org/2000/svg">
<path fill-rule="evenodd" clip-rule="evenodd" d="M22 8C13.72 8 7 14.72 7 23C7 31.28 13.72 38 22 38C30.265 38 37 31.28 37 23C37 14.72 30.265 8 22 8ZM31.9075 14.915C33.7541 17.1636 34.7762 19.9761 34.8044 22.8856C34.3806 22.805 30.1506 21.9425 25.8888 22.4788C25.7913 22.2688 25.7087 22.04 25.6112 21.8131C25.3506 21.1944 25.0581 20.5606 24.7656 19.9569C29.4831 18.0387 31.6319 15.2731 31.9094 14.9131L31.9075 14.915ZM22 10.2125C25.2531 10.2125 28.2306 11.4313 30.4937 13.4338C30.265 13.76 28.3281 16.3456 23.7738 18.0537C21.6738 14.1987 19.3487 11.0412 18.9906 10.5537C19.9771 10.3234 20.987 10.2089 22 10.2125V10.2125ZM16.5494 11.4163C18.2663 13.7957 19.8524 16.2669 21.3006 18.8187C15.3137 20.4125 10.0262 20.3806 9.45625 20.3806C9.86848 18.4414 10.7231 16.6235 11.9535 15.0689C13.1838 13.5143 14.7567 12.2649 16.5494 11.4181V11.4163ZM9.18062 23.0188V22.625C9.73375 22.6438 15.9494 22.7244 22.3431 20.8044C22.7162 21.5188 23.0575 22.2519 23.3837 22.9831L22.8775 23.1294C16.2738 25.2613 12.76 31.085 12.4656 31.5744C10.3503 29.2261 9.17997 26.1774 9.18062 23.0169V23.0188ZM22 35.8194C19.1529 35.8238 16.3866 34.8731 14.1437 33.1194C14.3687 32.6469 16.9731 27.6369 24.1956 25.115C24.2294 25.0981 24.2444 25.0981 24.2781 25.0831C25.4958 28.2263 26.4105 31.4786 27.01 34.7956C25.4275 35.4756 23.7224 35.824 22 35.8194V35.8194ZM29.1438 33.6238C29.0125 32.8419 28.3281 29.1013 26.6538 24.4963C30.6719 23.8625 34.1856 24.9031 34.6244 25.0494C34.3511 26.7794 33.723 28.4341 32.7795 29.9097C31.836 31.3853 30.5975 32.6498 29.1419 33.6238H29.1438Z" fill="#487EEB"/>
</svg>
