<svg width="45" height="90" viewBox="0 0 45 90" fill="none" xmlns="http://www.w3.org/2000/svg">
<g clip-path="url(#clip0_225_22)">
<path d="M8.0875 14.7213C8.26393 13.9482 8.69765 13.2579 9.31761 12.7635C9.93758 12.2692 10.707 11.9999 11.5 12H32.5C33.293 11.9999 34.0624 12.2692 34.6824 12.7635C35.3024 13.2579 35.7361 13.9482 35.9125 14.7213L22 23.2245L8.0875 14.7213ZM8 16.7198V29.1518L18.1552 22.9253L8 16.7198ZM19.8318 23.9525L8.33425 30.9998C8.61832 31.5988 9.06667 32.1048 9.62712 32.4589C10.1876 32.813 10.8371 33.0006 11.5 33H32.5C33.1628 33.0001 33.8121 32.8121 34.3722 32.4577C34.9323 32.1032 35.3803 31.5971 35.664 30.998L24.1665 23.9508L22 25.2755L19.8318 23.9508V23.9525ZM25.8447 22.927L36 29.1518V16.7198L25.8447 22.9253V22.927Z" fill="black"/>
<path d="M9.52451 55.5245C9.69035 55.3582 9.88736 55.2263 10.1043 55.1363C10.3212 55.0463 10.5537 55 10.7885 55C11.0233 55 11.2559 55.0463 11.4728 55.1363C11.6897 55.2263 11.8867 55.3582 12.0525 55.5245L21.5005 64.976L30.9484 55.5245C31.1144 55.3585 31.3115 55.2268 31.5283 55.137C31.7452 55.0472 31.9777 55.0009 32.2124 55.0009C32.4472 55.0009 32.6796 55.0472 32.8965 55.137C33.1134 55.2268 33.3104 55.3585 33.4764 55.5245C33.6424 55.6905 33.7741 55.8876 33.8639 56.1044C33.9538 56.3213 34 56.5538 34 56.7885C34 57.0233 33.9538 57.2557 33.8639 57.4726C33.7741 57.6895 33.6424 57.8865 33.4764 58.0525L24.0249 67.5005L33.4764 76.9484C33.6424 77.1144 33.7741 77.3115 33.8639 77.5283C33.9538 77.7452 34 77.9777 34 78.2124C34 78.4472 33.9538 78.6796 33.8639 78.8965C33.7741 79.1134 33.6424 79.3104 33.4764 79.4764C33.3104 79.6424 33.1134 79.7741 32.8965 79.8639C32.6796 79.9538 32.4472 80 32.2124 80C31.9777 80 31.7452 79.9538 31.5283 79.8639C31.3115 79.7741 31.1144 79.6424 30.9484 79.4764L21.5005 70.0249L12.0525 79.4764C11.8865 79.6424 11.6895 79.7741 11.4726 79.8639C11.2557 79.9538 11.0233 80 10.7885 80C10.5538 80 10.3213 79.9538 10.1044 79.8639C9.88756 79.7741 9.6905 79.6424 9.52451 79.4764C9.35851 79.3104 9.22684 79.1134 9.13701 78.8965C9.04717 78.6796 9.00093 78.4472 9.00093 78.2124C9.00093 77.9777 9.04717 77.7452 9.13701 77.5283C9.22684 77.3115 9.35851 77.1144 9.52451 76.9484L18.976 67.5005L9.52451 58.0525C9.35824 57.8867 9.22633 57.6897 9.13633 57.4728C9.04633 57.2559 9 57.0233 9 56.7885C9 56.5537 9.04633 56.3212 9.13633 56.1043C9.22633 55.8874 9.35824 55.6903 9.52451 55.5245Z" fill="black"/>
</g>
<defs>
<clipPath id="clip0_225_22">
<rect width="45" height="90" fill="white"/>
</clipPath>
</defs>
</svg>
