<svg width="45" height="45" viewBox="0 0 45 45" fill="none" xmlns="http://www.w3.org/2000/svg">
<path d="M22 7C17.9294 7 17.4175 7.01875 15.8181 7.09C14.2188 7.165 13.1294 7.41625 12.175 7.7875C11.1739 8.16404 10.2672 8.75467 9.51813 9.51813C8.75514 10.2676 8.16458 11.1742 7.7875 12.175C7.41625 13.1275 7.16313 14.2187 7.09 15.8125C7.01875 17.4156 7 17.9256 7 22.0019C7 26.0744 7.01875 26.5844 7.09 28.1838C7.165 29.7813 7.41625 30.8706 7.7875 31.825C8.17188 32.8113 8.68375 33.6475 9.51813 34.4819C10.3506 35.3163 11.1869 35.83 12.1731 36.2125C13.1294 36.5838 14.2169 36.8369 15.8144 36.91C17.4156 36.9813 17.9256 37 22 37C26.0744 37 26.5825 36.9813 28.1838 36.91C29.7794 36.835 30.8725 36.5838 31.8269 36.2125C32.8273 35.8358 33.7334 35.2451 34.4819 34.4819C35.3163 33.6475 35.8281 32.8113 36.2125 31.825C36.5819 30.8706 36.835 29.7813 36.91 28.1838C36.9813 26.5844 37 26.0744 37 22C37 17.9256 36.9813 17.4156 36.91 15.8144C36.835 14.2188 36.5819 13.1275 36.2125 12.175C35.8355 11.1742 35.2449 10.2675 34.4819 9.51813C33.7331 8.75439 32.8262 8.16371 31.825 7.7875C30.8688 7.41625 29.7775 7.16313 28.1819 7.09C26.5806 7.01875 26.0725 7 21.9963 7H22.0019H22ZM20.6556 9.70375H22.0019C26.0069 9.70375 26.4812 9.71688 28.0619 9.79C29.5244 9.85563 30.3194 10.1013 30.8481 10.3056C31.5475 10.5775 32.0481 10.9038 32.5731 11.4288C33.0981 11.9538 33.4225 12.4525 33.6944 13.1538C33.9006 13.6806 34.1444 14.4756 34.21 15.9381C34.2831 17.5188 34.2981 17.9931 34.2981 21.9963C34.2981 25.9994 34.2831 26.4756 34.21 28.0563C34.1444 29.5188 33.8988 30.3119 33.6944 30.8406C33.4539 31.4919 33.0701 32.0808 32.5712 32.5638C32.0462 33.0888 31.5475 33.4131 30.8463 33.685C30.3213 33.8913 29.5262 34.135 28.0619 34.2025C26.4812 34.2738 26.0069 34.2906 22.0019 34.2906C17.9969 34.2906 17.5206 34.2738 15.94 34.2025C14.4775 34.135 13.6844 33.8913 13.1556 33.685C12.5041 33.4449 11.9146 33.0617 11.4306 32.5638C10.9314 32.0801 10.547 31.4906 10.3056 30.8388C10.1013 30.3119 9.85563 29.5169 9.79 28.0544C9.71875 26.4738 9.70375 25.9994 9.70375 21.9925C9.70375 17.9875 9.71875 17.515 9.79 15.9344C9.8575 14.4719 10.1013 13.6769 10.3075 13.1481C10.5794 12.4488 10.9056 11.9481 11.4306 11.4231C11.9556 10.8981 12.4544 10.5738 13.1556 10.3019C13.6844 10.0956 14.4775 9.85188 15.94 9.78438C17.3238 9.72063 17.86 9.70188 20.6556 9.7V9.70375ZM30.0081 12.1938C29.7717 12.1938 29.5377 12.2403 29.3193 12.3308C29.1009 12.4212 28.9025 12.5538 28.7353 12.721C28.5682 12.8881 28.4356 13.0865 28.3451 13.3049C28.2547 13.5233 28.2081 13.7574 28.2081 13.9938C28.2081 14.2301 28.2547 14.4642 28.3451 14.6826C28.4356 14.901 28.5682 15.0994 28.7353 15.2665C28.9025 15.4337 29.1009 15.5663 29.3193 15.6567C29.5377 15.7472 29.7717 15.7938 30.0081 15.7938C30.4855 15.7938 30.9434 15.6041 31.2809 15.2665C31.6185 14.929 31.8081 14.4711 31.8081 13.9938C31.8081 13.5164 31.6185 13.0585 31.2809 12.721C30.9434 12.3834 30.4855 12.1938 30.0081 12.1938ZM22.0019 14.2975C20.9801 14.2816 19.9654 14.469 19.0168 14.849C18.0682 15.229 17.2047 15.7939 16.4765 16.5108C15.7483 17.2277 15.1701 18.0823 14.7753 19.0249C14.3806 19.9674 14.1773 20.9791 14.1773 22.0009C14.1773 23.0228 14.3806 24.0345 14.7753 24.977C15.1701 25.9196 15.7483 26.7742 16.4765 27.4911C17.2047 28.208 18.0682 28.7729 19.0168 29.1529C19.9654 29.5328 20.9801 29.7203 22.0019 29.7044C24.0241 29.6728 25.9529 28.8473 27.3718 27.4061C28.7908 25.9649 29.5861 24.0234 29.5861 22.0009C29.5861 19.9784 28.7908 18.037 27.3718 16.5958C25.9529 15.1545 24.0241 14.3291 22.0019 14.2975ZM22.0019 16.9994C23.3281 16.9994 24.6001 17.5262 25.5379 18.464C26.4757 19.4018 27.0025 20.6738 27.0025 22C27.0025 23.3262 26.4757 24.5982 25.5379 25.536C24.6001 26.4738 23.3281 27.0006 22.0019 27.0006C20.6756 27.0006 19.4037 26.4738 18.4659 25.536C17.5281 24.5982 17.0013 23.3262 17.0013 22C17.0013 20.6738 17.5281 19.4018 18.4659 18.464C19.4037 17.5262 20.6756 16.9994 22.0019 16.9994Z" fill="#487EEB"/>
</svg>
