<svg width="45" height="45" viewBox="0 0 45 45" fill="none" xmlns="http://www.w3.org/2000/svg">
<path d="M7 9.14875C7 7.96188 7.98625 7 9.20312 7H34.7969C36.0137 7 37 7.96188 37 9.14875V34.8513C37 36.0381 36.0137 37 34.7969 37H9.20312C7.98625 37 7 36.0381 7 34.8513V9.14875ZM16.2681 32.1138V18.5669H11.7663V32.1138H16.2681ZM14.0181 16.7163C15.5875 16.7163 16.5644 15.6775 16.5644 14.3763C16.5362 13.0469 15.5894 12.0363 14.0481 12.0363C12.5069 12.0363 11.5 13.0488 11.5 14.3763C11.5 15.6775 12.4769 16.7163 13.9881 16.7163H14.0181V16.7163ZM23.2206 32.1138V24.5481C23.2206 24.1431 23.2506 23.7381 23.3706 23.4494C23.695 22.6412 24.4356 21.8031 25.6806 21.8031C27.31 21.8031 27.9606 23.0444 27.9606 24.8669V32.1138H32.4625V24.3438C32.4625 20.1812 30.2425 18.2463 27.28 18.2463C24.8912 18.2463 23.8206 19.5587 23.2206 20.4831V20.53H23.1906C23.2006 20.5143 23.2106 20.4987 23.2206 20.4831V18.5669H18.7206C18.7769 19.8381 18.7206 32.1138 18.7206 32.1138H23.2206Z" fill="#487EEB"/>
</svg>
