<svg width="64" height="33" viewBox="0 0 64 33" fill="none" xmlns="http://www.w3.org/2000/svg">
<path d="M46 1H33V1.5H35.5V31H33V31.5H46V31H43.5V16.5H44L51.5 31H49.5V31.5H63V31H61L50 10L58 1.5H60.5V1H53V1.5H56.5L43.5 16V1.5H46V1Z" fill="black"/>
<path fill-rule="evenodd" clip-rule="evenodd" d="M1 1H18.5C21.7444 0.999995 23 1.21428 25.5 3C28 4.78572 28 12 26 13.5C24.4375 14.6719 23.1437 14.8836 21.2504 15.1934C20.7203 15.2802 20.1432 15.3746 19.5 15.5C23.7532 16.1645 25.3346 17.2317 26 21L26.5 28C26.5 28 26.3637 29.1986 27 29.5C27.5294 29.7508 28.5 29.5 28.5 29.5C28.5 29.5 29.3047 28.9763 29.5 28C29.5976 27.5118 29.6738 27.2559 29.75 27C29.8262 26.7441 29.9024 26.4882 30 26H30.5C30.1782 28.1691 29.7822 28.889 29 30C28.2685 31.0502 27 31.6794 26 31.6794C25.6972 31.6794 25.4403 31.6958 25.1598 31.7138C24.5139 31.7551 23.7431 31.8044 22 31.6794C19.5 31.5 18.5 30 18 28.5C17.5 27 17.5 25 17.5 23.5V18.5C17.5 17 16.1719 16.1026 15 16H12V31H15V31.5H1V31H4L3.5 1.5H1V1ZM13.3902 1.45561C12.9479 1.47719 12.4803 1.5 12 1.5V15H15.5C16 15 17.5 14 18 12C18.5 10 19 5 18 3.5C17 2 16.3695 1.68473 15.5 1.5C14.9361 1.38019 14.2063 1.41579 13.3902 1.45561Z" fill="black"/>
<path d="M1 1C1 1 15.2556 1.00001 18.5 1M1 1V1.5H3.5L4 31H1V31.5H15V31H12V16H15C16.1719 16.1026 17.5 17 17.5 18.5M1 1H18.5M18.5 1C21.7444 0.999995 23 1.21428 25.5 3C28 4.78572 28 12 26 13.5C24.4375 14.6719 23.1437 14.8836 21.2504 15.1934C20.7203 15.2802 20.1432 15.3746 19.5 15.5C23.7532 16.1645 25.3346 17.2317 26 21L26.5 28C26.5 28 26.3637 29.1986 27 29.5C27.5294 29.7508 28.5 29.5 28.5 29.5C28.5 29.5 29.3047 28.9763 29.5 28C29.5976 27.5118 29.6738 27.2559 29.75 27C29.8262 26.7441 29.9024 26.4882 30 26H30.5C30.1782 28.1691 29.7822 28.889 29 30C28.2685 31.0502 27 31.6794 26 31.6794C25.6972 31.6794 25.4403 31.6958 25.1598 31.7138C24.5139 31.7551 23.7431 31.8044 22 31.6794C19.5 31.5 18.5 30 18 28.5C17.5 27 17.5 25 17.5 23.5M17.5 23.5C17.5 22 17.5 18.5 17.5 18.5M17.5 23.5V18.5M15.5 15C16 15 17.5 14 18 12C18.5 10 19 5 18 3.5C17 2 16.3695 1.68473 15.5 1.5C14.9361 1.38019 14.2063 1.41579 13.3902 1.45561C12.9479 1.47719 12.4803 1.5 12 1.5V15M15.5 15C15 15 12 15 12 15M15.5 15H12M33 1H46V1.5H43.5V16L56.5 1.5H53V1H60.5V1.5H58L50 10L61 31H63V31.5H49.5V31H51.5L44 16.5H43.5V31H46V31.5H33V31H35.5V1.5H33V1Z" stroke="black" stroke-width="0.5"/>
</svg>
