<svg width="215" height="285" viewBox="0 0 215 285" fill="none" xmlns="http://www.w3.org/2000/svg">
<path fill-rule="evenodd" clip-rule="evenodd" d="M83.5 48.5001C95.5 43.5001 118.5 41.0001 135.5 48.5001C152.5 56.0002 156.813 60.0002 168 71.5001C169.064 72.5942 170.112 73.6611 171.141 74.7095C180.929 84.6808 189.071 92.9748 194.5 107C200.5 122.5 200 141.5 194.5 164C192.134 173.678 190.601 181.229 189.144 188.402C187.215 197.906 185.419 206.748 182 219C176 240.5 155.5 259.5 137.5 266C119.5 272.5 96.5 273.5 80.5 266C64.5 258.5 43 240.5 37.5 219.5C32 198.5 29.694 187.5 25 164.5C20.306 141.5 17.5 123 25 106.5C32.4553 90.0985 43.3906 79.1315 50.8658 71.6347L51 71.5001C58.478 64.0002 71.5 53.5002 83.5 48.5001ZM95.5 90.0001C88 91.5001 78 95.5002 71.5 100.5C65 105.5 63.5 111 63.5 118C63.5 125 65.5 129.5 71.5 136C77.5 142.5 88.6377 149.718 103.5 154V177C103.5 177 84 195.5 81 199C78 202.5 86 211 90 207.5C94 204 109.5 189.5 109.5 189.5H113C115.47 191.97 117.903 194.416 120.204 196.729C124.451 200.997 128.248 204.814 131 207.5C135.243 211.641 144.362 202.749 140.5 199C136.638 195.251 117.5 175.5 117.5 175.5V154C130.384 151.406 143.5 143.5 150 136C156.5 128.5 157 126 158 118C159 110 156 105.5 150 100.5C144 95.5002 133.5 91.5001 125 90.0001C116.5 88.5002 103 88.5002 95.5 90.0001Z" fill="white"/>
<path d="M51 71.5001C58.478 64.0002 71.5 53.5002 83.5 48.5001C95.5 43.5001 118.5 41.0001 135.5 48.5001C152.5 56.0002 156.813 60.0002 168 71.5001C169.064 72.5942 170.112 73.6611 171.141 74.7095C180.929 84.6808 189.071 92.9748 194.5 107C200.5 122.5 200 141.5 194.5 164C192.134 173.678 190.601 181.229 189.144 188.402C187.215 197.906 185.419 206.748 182 219C176 240.5 155.5 259.5 137.5 266C119.5 272.5 96.5 273.5 80.5 266C64.5 258.5 43 240.5 37.5 219.5C32 198.5 29.694 187.5 25 164.5C20.306 141.5 17.5 123 25 106.5C32.4553 90.0985 43.3906 79.1315 50.8658 71.6347M51 71.5001L50.8658 71.6347M51 71.5001C50.9554 71.5449 50.9107 71.5897 50.8658 71.6347M71.5 100.5C78 95.5002 88 91.5001 95.5 90.0001C103 88.5002 116.5 88.5002 125 90.0001C133.5 91.5001 144 95.5002 150 100.5C156 105.5 159 110 158 118C157 126 156.5 128.5 150 136C143.5 143.5 130.384 151.406 117.5 154V175.5C117.5 175.5 136.638 195.251 140.5 199C144.362 202.749 135.243 211.641 131 207.5C128.248 204.814 124.451 200.997 120.204 196.729C117.903 194.416 115.47 191.97 113 189.5H109.5C109.5 189.5 94 204 90 207.5C86 211 78 202.5 81 199C84 195.5 103.5 177 103.5 177V154C88.6377 149.718 77.5 142.5 71.5 136C65.5 129.5 63.5 125 63.5 118C63.5 111 65 105.5 71.5 100.5Z" stroke="white" stroke-linejoin="round"/>
<path d="M61.5 34.5C61.5 45.5574 52.758 54.5 42 54.5C31.242 54.5 22.5 45.5574 22.5 34.5C22.5 23.4426 31.242 14.5 42 14.5C52.758 14.5 61.5 23.4426 61.5 34.5Z" fill="white" stroke="white"/>
<path d="M196.5 34.5C196.5 45.5574 187.758 54.5 177 54.5C166.242 54.5 157.5 45.5574 157.5 34.5C157.5 23.4426 166.242 14.5 177 14.5C187.758 14.5 196.5 23.4426 196.5 34.5Z" fill="white" stroke="white"/>
</svg>
